<?xml version="1.0" encoding="UTF-8" standalone="no"?>
<svg
   xmlns:dc="http://purl.org/dc/elements/1.1/"
   xmlns:cc="http://creativecommons.org/ns#"
   xmlns:rdf="http://www.w3.org/1999/02/22-rdf-syntax-ns#"
   xmlns:svg="http://www.w3.org/2000/svg"
   xmlns="http://www.w3.org/2000/svg"
   xmlns:sodipodi="http://sodipodi.sourceforge.net/DTD/sodipodi-0.dtd"
   xmlns:inkscape="http://www.inkscape.org/namespaces/inkscape"
   version="1.1"
   id="Layer_1"
   x="0px"
   y="0px"
   viewBox="0 0 100 100"
   xml:space="preserve"
   sodipodi:docname="tank1svg.svg"
   inkscape:version="0.92.4 (5da689c313, 2019-01-14)"><metadata
   id="metadata84"><rdf:RDF><cc:Work
       rdf:about=""><dc:format>image/svg+xml</dc:format><dc:type
         rdf:resource="http://purl.org/dc/dcmitype/StillImage" /><dc:title></dc:title></cc:Work></rdf:RDF></metadata><defs
   id="defs82" /><sodipodi:namedview
   pagecolor="#ffffff"
   bordercolor="#666666"
   borderopacity="1"
   objecttolerance="10"
   gridtolerance="10"
   guidetolerance="10"
   inkscape:pageopacity="0"
   inkscape:pageshadow="2"
   inkscape:window-width="1920"
   inkscape:window-height="1001"
   id="namedview80"
   showgrid="false"
   inkscape:zoom="5.5012908"
   inkscape:cx="7.2838605"
   inkscape:cy="38.229607"
   inkscape:window-x="-9"
   inkscape:window-y="1341"
   inkscape:window-maximized="1"
   inkscape:current-layer="Layer_1" /><desc
   id="desc48">Copyright Opto 22</desc> <svg
   version="1.1"
   id="svg77"><g
     id="g75">
	<g
   id="shape">
		<path
   fill="#999999"
   d="M50.007,0c-19.92,0-36.068,3.364-36.068,7.514v54.102c0,0.647,0.393,1.276,1.132,1.875l0.644,0.53V100    h7.889V70.521l20.571,16.948c0.655,0.544,3.017,0.947,5.831,0.947c2.695,0,4.975-0.369,5.739-0.878l18.952-15.61V100h7.889V65.43    l2.326-1.916c0.758-0.606,1.161-1.243,1.161-1.899V7.514C86.074,3.364,69.926,0,50.007,0z"
   id="path50" />
	</g>
	<g
   id="dark">
		<path
   fill="#666666"
   d="M50.007,69.13c-10.427,0-19.817-0.922-26.403-2.396v3.787l20.571,16.948    c0.655,0.544,3.017,0.947,5.831,0.947c2.695,0,4.975-0.369,5.739-0.878l18.952-15.61v-4.837    C68.244,68.355,59.561,69.13,50.007,69.13z"
   id="path53" />
		<rect
   x="21.35"
   y="52.663"
   fill="#666666"
   width="2.254"
   height="47.337"
   id="rect55" /> 
		<rect
   x="80.333"
   y="52.663"
   fill="#666666"
   width="2.254"
   height="47.337"
   id="rect57" /> 
	</g>
	<g
   id="light">
		<ellipse
   fill="#cccccc"
   cx="50.007"
   cy="7.514"
   rx="36.068"
   ry="7.514"
   id="ellipse60" />
		<polygon
   fill="#cccccc"
   points="75.636,53.671 75.636,100 74.697,100 74.697,52.663 80.333,52.663 80.333,53.671   "
   id="polygon62" />
	</g>
	<g
   id="shadow">
		<polygon
   fill="#666666"
   points="53.25,87.914 55.315,87.914 75.033,71.359 75.033,67.109   "
   id="polygon65" />
		<path
   fill="#666666"
   d="M83.587,10.255v54.351l1.326-1.092c0.758-0.607,1.161-1.243,1.161-1.899V7.514   C86.074,8.482,85.187,9.406,83.587,10.255z"
   id="path67" /> 
	</g>
	<g
   id="hlight">
		<ellipse
   fill="#cccccc"
   cx="28.436"
   cy="5.072"
   rx="9.919"
   ry="2.066"
   id="ellipse70" />
		<polygon
   fill="#cccccc"
   points="16.653,53.671 16.653,100 15.715,100 15.715,52.663 21.35,52.663 21.35,53.671   "
   id="polygon72" />
	</g>
</g></svg><text
   xml:space="preserve"
   style="font-style:normal;font-variant:normal;font-weight:normal;font-stretch:normal;font-size:8px;line-height:1.25;font-family:sans-serif;-inkscape-font-specification:'sans-serif, Normal';font-variant-ligatures:normal;font-variant-caps:normal;font-variant-numeric:normal;font-feature-settings:normal;text-align:start;letter-spacing:0px;word-spacing:0px;writing-mode:lr-tb;text-anchor:start;fill:#000000;fill-opacity:1;stroke:none"
   x="3.7275069"
   y="7.326478"
   id="TAG1"
   inkscape:label="TAG1"><tspan
     sodipodi:role="line"
     id="tspan90"
     x="3.7275069"
     y="7.326478">t</tspan></text>
</svg>